<?xml version="1.0" encoding="UTF-8"?>
<svg id="Layer_1" data-name="Layer 1" xmlns="http://www.w3.org/2000/svg" viewBox="0 0 291.46 69.13">
  <defs>
    <style>
      .cls-1 {
        fill: #85b7f1;
      }
    </style>
  </defs>
  <path class="cls-1" d="m1.66,34.69c-.13.23-.26.48-.39.74.3,1.29.89,2.43,1.59,3.37-.68-1.2-1.16-2.62-1.2-4.1Z"/>
  <path class="cls-1" d="m26.97,53.61c2.85.43,8.13,1.53,8.44.66-1.7-.17-3.41-.35-5.12-.57-.49-.85-3.7-1.76-6.57-2.54,1.06.35,2.13.7,3.2,1.02-.85-.18-.46.4-1.32.22-2.39-.98-3.96-1.4-5.47-1.88-1.5-.49-2.96-1.01-4.98-2.38l.28.05c-1.2-.41-2.4-.84-3.59-1.34-1.01-.68-.42-.73-.03-.64-1.56-.68-2.94-1.34-4.36-2.26-.71-.47-1.44-.99-2.18-1.68-.74-.68-1.5-1.5-2.19-2.61.55,2.1,2.81,3.97,5.07,5.23,2.27,1.33,4.61,2.27,5.94,3.63l-.28-.05c4.21,1.58,8.75,4.11,13.14,5.14Z"/>
  <path class="cls-1" d="m11.82,46.21c.1.04.18.08.28.12,0-.04-.12-.09-.28-.12Z"/>
  <path class="cls-1" d="m190.34,66.31l.17-.21c-.26.09-.51.18-.17.21Z"/>
  <path class="cls-1" d="m135.06,65.26c.09,0,.17.02.27.03.35-.27.17-.2-.27-.03Z"/>
  <path class="cls-1" d="m102.21,3.27l-1.1-.21c.29.25.67.28,1.1.21Z"/>
  <path class="cls-1" d="m28.65,14.55l-.1.05s.08-.03.1-.05Z"/>
  <path class="cls-1" d="m62.51,11.2l.18.23c.12-.16.03-.22-.18-.23Z"/>
  <path class="cls-1" d="m39.28,16.21c-.66.09-1.3.2-1.94.36.47.02,1.29-.15,1.94-.36Z"/>
  <path class="cls-1" d="m29.33,14.25c-.2.11-.44.21-.68.31.26-.11.52-.21.68-.31Z"/>
  <path class="cls-1" d="m98.17,7.67l.97.59c-.03-.21-.52-.4-.97-.59Z"/>
  <path class="cls-1" d="m33.76,18.18c-.35-.03-.79.02-1.25.11.25.06.68.05,1.25-.11Z"/>
  <path class="cls-1" d="m31.7,54.96c-.67-.17-1.41-.38-2.34-.58.84.3,1.61.48,2.34.58Z"/>
  <path class="cls-1" d="m232.03,12.82c-.19.04-.35.1-.46.18.53.03.57-.06.46-.18Z"/>
  <path class="cls-1" d="m153.77,6.48l-.26.02c.07.03.16.06.32.11l-.07-.13Z"/>
  <path class="cls-1" d="m176.73,7.06c-.11.04-.22.08-.31.13.22-.05.29-.09.31-.13Z"/>
  <path class="cls-1" d="m136.43,7.18c-.28.06-.56.13-.8.24l.8-.24Z"/>
  <path class="cls-1" d="m119.82,6.94c.75.2-.04.46-.81.71,4.15.15,5.49-.71,9.81-.26l-2.03-.27c2.77-.56,7.91-.77,10.41-.16l-.77.23c2.64-.57,6.82.39,7.94-.06-1.09-.28.05-.45-1.64-.72l6.74-.54.5.89,3.54-.26c-.87-.37,4.74.35,4.85-.48,2.01.36-.85.66-1.57.99,2-.22,2.2.16,4.06-.31l1.95.82,5.2-.4c-.26.06.06.13-.2.19,2.4-.58,6,.6,9.08-.38-.16.03-.11.07-.16.12,1.68-.54,5.75.13,7.23.35,2.68.01,1.16-.68,1.29-1,7.75.71,5.27.49,11.86.08,3.81,1.29-4.73,1.19.16,2.27.7-.42,4.16-.5,8.05-.3,3.51.68,9.39,1.6,12.71,2.7l-.27-.67,5,.3-2.93.54c.82-.11,3.35-.18,5.05-.25,5.21.21,2.7,1.8,6.82,1.47.14.09.26.18.34.26,1.36-.28,4.68.46,8.55,1.02l-1.49.55-2.46-.63c1.2,1.02,4.14.62,6.55,1.16,2.58.25,1.46-.66,2.86-.62.9.24,2.32.29,2.99.69,2.16.75.02.99-.75,1.17,2.09-.37,2.73-.15,7.05.61.12.44-.23.52-.81.46.92.13,1.73.17,2.28-.05l1.3.84c2.29.99,3.56.99,4.98.98,1.41,0,2.98-.02,5.73,1.13-.82-.07.39.34,1.98.95,1.59.6,3.53,1.48,4.24,2.1-1.9-.73.37,1.49-.95,1.42,1.99,1.12,2.47,1.15,2.93,1.03.43-.08.85-.33,2.48.57-.61.03-1.2.06-1.8.11,1.62.69,1.86.72,2.11.73.25.03.53.03,2.04.98-.94-.36,1.04,1.16-.78.16,1.75,1.42,2.24,2.02,2.71,2.54.41.53.92,1.05,1.44,2.48.33-.03.66-.05,1-.05.22.54.18.96.08,1.25-.09.29-.27.46-.36.59.04-.42-.03-1.09-.15-1.01-.35.63-.22,1-.2,1.52.04.49-.01,1.12-.72,1.59.42-.16,1.1-.41.37.94-.13-.37-.53.05-1.02.49-.48.45-1.05.95-1.19.9.49-.21-.04.43-.78,1.16-.74.73-1.69,1.52-1.61,1.86-1.91.72.26-.73.13-1.07-.4.78-1.84,1.76-3.37,2.58-1.53.83-3.13,1.51-3.74,2.03-.05-.04-.15-.04-.16-.08-1.77,1.32-5.07,2.78-9.02,4.77l1.25-1.01c-4.25,1.14-2.18,1.97-5.71,3.02.53-.95-5.86,1.68-4.5.38-2,.99-4.23,1.75-5.48,2.74-2.14.04,3.62-1.98.75-1.53l-2.95,1.1-.64-.3c-.05.35-2.72.94-2.54,1.16-.58-.41-1.89-.52-1.83-.93-1.9.55-4.72.57-6.25,1.31l-.19-.22c-1.7,1.29-5.88,1.2-6.67,2.33l-1.29-.34c-2.96.54-2.24,1.46-3.59,1.9-1.19.21-2.64.53-3.91.6,3.81-1.16-2.07-.5-2.92-.76-1.53.19-6.04.8-7.23,1.42,1.79-.72.6-.99,3.91-1.43-1.89-.75-5.02.81-8.77,1.06v-.46c-5.28.83-5.38,1.6-7.62,2.59-.68-.5-.16-.7,1.3-1.39-3.57-.01-9.14.79-13.16.98-1.29-.32-.47-.6.84-.86-4.1.71-9.25.45-11.8,1.56,1-.44-1.68-.18-3.22-.31,0,.21-.27.48-.46.46-2.52.51-8.12,1.07-11.09.77l1.06-.32c-6.84-.01-9.84,1.74-17.33,1.02-1.34-.22,1.38-.82-1.36-.8-1.33.36-.9,1.13-4.39.89l.24-.65-2.39.63c1.22.56,5.11.4,2.38.98-3.12-.65-2.74.58-6.53-.21.88-.05,2.04-.53,2.66-.78-7.93-.92-11.15.4-19.17-.76-4.03.34-9.19.15-12,.44.27-.64.28-1.22,2.17-1.61-3.41-.3-5.12,1.06-7.43-.07-1.71.79-9.52-.2-10.45.95-.12-.26-3.68-.36-.03-.71-4.71-.04-6.02-1.7-8.15-1.92-1.2-.1,1.28.94-1.45.66-.33-.09-.39-.23-.72-.32l-1.08.17c-1.05-.42,1.26-.47,1.4-.79-3.78-.71-6.38-.04-10.9-.58l.8-.11-4.57-.71.27-.03-3.76-.14.16-.3c-.87-.05-1.1.12-2.29-.04l.45-.33c-1.27.43-5.69,0-7.81-.42l-.37-.25c-1.71-.06-3.43-.13-5.15-.21-2.56-.99,3.58-.21-1.74-1.04l1.52-.5c-3.8-.5-4.25-1.07-6.85-1.41,1.05.68,2.82,1.05,1.43,1.09-2.7-1.61-4.71-.91-7.62-1.33,1.42.38,2.39.64,3.47.44,1.5.4.43.56,1.35.83l2.25.08.48.69,3.78.41c-.37.6,3.37.81,1.78,1.18,2.63.27,4.02,1.02,6.5.82,1.68.72-2.86-.05-1.01.36,10.44,1.45,21.15,3.05,32,4.42l-1.09.18c1.09-.18,2.51-.27,3.32-.41,1.78.73,8.87,2.04,11.46,1.24.34.08-.21.18-.48.24,3.63.18,10.13,1.33,15.31,1.49,2.24-.91,7.75,1.02,9.77-.32l-1.08.25c-1.74-.46,2.55-.88,3.28-1.21,1.42.97.07.71,1.78,1.62l-2.04-.39.43.78c6.62-1.73,12.22,1.2,16.34-.18-.25.07-.19.2-.46.27,2.72.46,4.63-.51,6.63-.76.23.38-1.19.62-2.24.91,4.79.32,12.81-.78,18.1-.31,1.85-.56-.72-.67,1.21-1.1,1.63.1,2.8.48.8.8,4.59.85,15.02-1.13,22.03-.71,3.63-.81,1.33-.89,6.91-1.67-1.29.46,1.43,1.15-1.93,1.43l-.37.43c5.6-.3,13.08-.82,16.01-2.26.26.81,1.03.07,3.18.28.85-.18-.09-.12-.44-.14,1.97-.92,3.1-.31,4.55-.58l-.5.2,3.94-.99c.68.02,1.7.05,1.87.29l-.1-.57c2.15-.28,1.13.6,3.79.1l-.62-.36c1.73.04,4.36-.95,4.8-.38.09.11-.25.11-.85.22,2.79.49,6.82-1.32,10.16-1.49l-1-.78c3.13-.84,1.98-.15,1.92.2,2.13-.39,2.65-.17,5.48-.61,1.34-.51.65-.48,1.05-.84l2.9-.36-1.73.89c2.06-1.12,4.81-1.68,7.38-2.23,2.57-.55,4.96-1.11,6.24-2.11,1.72-.19-1.33.94-.3.83,2.66-.4,5.48-1.46,8.15-2.56,2.68-1.1,5.2-2.26,7.41-2.81,3.51-1.13,7.17-2.84,10.64-5.39,1.72-1.29,3.43-2.81,4.82-4.86.69-1.02,1.29-2.19,1.64-3.52.35-1.32.42-2.78.19-4.14l-.21.24c-.2-1.27-.65-2.45-1.22-3.5-.58-1.03-1.26-1.95-1.99-2.78-.82-.45-1.97-1.43-3.28-2.29-1.31-.88-2.77-1.65-4.01-1.98.28-.07-.03-.6.54-.45-2.24-1.21-4.8-2.08-6.01-2.97l.85.13c-4.96-2.44-12.17-4.69-15.02-4.98-1.79-.44-1.62-.87-2.02-1.29-3.01-.84-5.06-1.07-7.64-1.25-.63-.25-1.28-.52-1.98-.9l-1.29.35c-1.25-.36-.19-.56-1.16-.93-4.88-.29-10.3-1.91-13.66-2.41l.43.38c-1.42,0-4.04-.84-2.35-.89-6.58-1.38-9.97-.52-18.92-1.72-1.13-1.27-8.13-.53-9.34-1.88-3.83-.03-6.25-.73-8.96-.2-.07-.13-.4-.21.21-.19-1.47-.59-6.52-.59-10.36-.49l-.19-.39c-1.42.72-8.01.16-9.42.93-.41-.2.74-.32,1.28-.44-1.96-.86-3.5.22-6.06-.04.2-.19-.55-.45,0-.58-8.51-1.2-20.92.1-32.04-.34-3.1.01,1.13.85-2.91.85-1.17-.39,1.97-.88-.6-1-1.85.55-2.53.45-5.02.47.45-.28.03-.45,1.78-.68-1.45-.31-6.08.81-8.96.24.15.25-.37.41-.89.58-4.18.87-9.69-.27-10.06.15,0,0-1.47.2-.18.21-1.55.07-3.78.08-3.41-.34-.79.27-1.48.66-2.7.78l.63-.52c-.7.15-1.49.49-2.17.6l1.11.21c-1.8-.28-5.19.92-5.15.02l.6-.07-3.34-.15c-1.29.47-2.6.94-4.82,1.02-.94-.87-5.67.32-8.5.52l.09-.34c-2.16.67-7.82,1.14-6.78,1.18-2.14.26-5.06.41-4.04-.02-1.72.41-5.4.91-6.23,1.59l-3.61-.25c-1.91,1.46-7.05.73-7.05,1.99-1.97.16-1.57-.19-2.95-.16-2.59,1.1-5.38,1.56-8.2,2.06l-.1-.11c-2.81.51-5.94,1.88-9.79,2.97l-1.07-.69c-2,.69-2.29,1.54-4.26,1.92-.49,0-.08-.18.42-.39-1.83.74-4.43,1.35-5.93,1.64-2.65,1.67-4.94,2.31-7.1,4.11-2.54.23,3.11-1.8.92-1.67-2.11.68-4.15,1.68-6.13,2.95-1.97,1.31-3.91,2.84-5.67,4.87-.45.2-.13-.33-.11-.63,0,0-.1.15-.27.4-.17.25-.4.63-.65,1.08-.5.91-1.07,2.19-1.31,3.51-.26,1.31-.12,2.6.18,3.32.29.73.63.93.84.51.31.59.55,1.21.79,1.19.12,0,.23-.18.35-.6.06-.19.1-.53.19-.77.04-.13.07-.27.12-.43.06-.15.12-.32.19-.5-.08-.52.09-1.6.64-2.52.53-.92,1.3-1.65,1.77-1.62l-.3-.62c.86-.94,1.44-1.31,1.8-1.46.36-.15.54-.06.75.02.44.18.88.21,3.48-1.34-.41.15-.8.32-1.21.48.95-.63,1.56-1.47,2.84-1.88.43-.02-.27.45-.65.81,1.35-1.06,2.79-2.07,4.27-3.03.36.26.24.52-.58,1.21,2.16-.97,1.84-1.13,1.64-1.34-.2-.19-.28-.44,2.52-1.39,1.1-.11-.21.51-.86.99,2.72-.46,4.26-1.54,6.85-2.73.21.55-1.57,1.04.75.7-.53-.16-.97-.55.73-1.14-.66.81,1.39-.11,3.11-.43-.4-.1-.34-.4.29-.68.8-.32,1.57-.29,2.72-.63h-2.23c2.78-1.33,4.67-.92,6.95-1.21-.16.15-.53.31-.97.45,2.41-.34,4.93-.43,7.82-1.54l-.24.12c5.55-1.7-1.95-.62,4.55-2.45,2.2-.29-.69,2.05,4.21.48-2.47-.08,3.04-1.76,5.9-2.42l-2.8,1.6c1.16-.18,3.13-.81,3.78-.8l-.18-.23c-.37-.92,3.75-.44,5.76-1.3-2.42,1.66-2.6,1.44-2.88,2.8,1.92-1,4.17-1.99,7.91-2.33l-2.93,1.4c4.97-.45,10.64-2.59,14.66-3.84-1.03.85.68.95-1.04,1.76l4.77-.62-1.27.94c1.88-1.02,4.08-.64,3.66-1.69-.51.19-.43.31-1.36.36.09-.34.86-1.08,3.34-1.25,1.7.12-.95.5-.45.77,1.56-.58,1.71.13,3.34-.32l-1.52-.34c1.11-.71,2.74-.25,4.35-.68-1.95.42-1.27.73-.51,1.05l-.11-.07c1.19-.13,2.74-.68,3.59-.38l-.96.94,1.72-.76c.68.06,1.17.34.06.58,5.52.18-.28-1.87,6.97-1.5-.1.33-.88.6-2.84.52-.28.54.22.82,2.17.9.04.04,0,.07.02.1,3.73-.2,8.6-.38,11.03-1.06Z"/>
  <path class="cls-1" d="m108.79,8c-2,.1-3.68.22-4.45.38.39.14,4.58.15,4.45-.38Z"/>
  <path class="cls-1" d="m187.28,62.02c.25-.04.5-.08.73-.13-.25.05-.5.09-.73.13Z"/>
  <path class="cls-1" d="m171.42,63.11c.17.08.48.13.84.16,0-.17-.22-.29-.84-.16Z"/>
  <path class="cls-1" d="m254.46,17.22s.04,0,.07,0c-.02,0-.05,0-.07,0Z"/>
  <path class="cls-1" d="m244.61,54.19c-1.3.56-1.76.88-1.79,1.12.84-.24,1.51-.58,1.79-1.12Z"/>
  <path class="cls-1" d="m273.5,45.92c.15-.12.32-.24.45-.35-.37.22-.47.31-.45.35Z"/>
  <path class="cls-1" d="m249.77,16.52c1.36.02,3.17.48,4.69.7-1.3-.17-3.67-1.04-4.69-.7Z"/>
  <polygon class="cls-1" points="152.06 64.53 153.64 64.08 151.98 64.41 152.06 64.53"/>
  <path class="cls-1" d="m166.92,63.93c.67.09,3.27-.29,2.5-.49-.78.25-1.66.37-2.5.49Z"/>
  <polygon class="cls-1" points="223.7 59.69 224.27 59.13 223.01 59.68 223.7 59.69"/>
</svg>