<svg width="418" height="461" viewBox="0 0 418 461" fill="none" xmlns="http://www.w3.org/2000/svg">
<g filter="url(#filter0_f_52_17)">
<path d="M279.892 520.504C301.542 512.835 310.441 494.866 298.226 475.378L198.066 410.703C126.638 423.215 -16.9171 448.439 -19.7144 449.249C-22.5118 450.058 -10.7754 507.564 5.59011 553.759C104.639 588.454 191.634 551.039 220.539 494.574L279.892 520.504Z" fill="#300E00" fill-opacity="0.3"/>
</g>
<g filter="url(#filter1_d_52_17)">
<rect width="109.292" height="62.1462" rx="20" transform="matrix(-0.904126 -0.427267 -0.427267 0.904126 312.997 445.401)" fill="white"/>
<rect x="233.559" y="407.86" width="20.3582" height="62.1462" transform="rotate(25.2942 233.559 407.86)" fill="#D9D9D9"/>
<mask id="mask0_52_17" style="mask-type:alpha" maskUnits="userSpaceOnUse" x="214" y="413" width="95" height="85">
<rect width="84.6474" height="62.1462" rx="13" transform="matrix(-0.904126 -0.427267 -0.427267 0.904126 312.997 445.401)" fill="white"/>
</mask>
<g mask="url(#mask0_52_17)">
<circle cx="70.1251" cy="364.994" r="188.581" transform="rotate(25.2942 70.1251 364.994)" fill="#D9D9D9"/>
</g>
<circle cx="58.4997" cy="359.5" r="188.581" transform="rotate(25.2942 58.4997 359.5)" fill="white"/>
<circle cx="58.4998" cy="359.5" r="178.938" transform="rotate(25.2942 58.4998 359.5)" fill="#D9D9D9"/>
<circle cx="58.5" cy="359.5" r="153.222" transform="rotate(-37.6281 58.5 359.5)" fill="#B17C54"/>
<circle cx="58.4999" cy="359.5" r="140.365" transform="rotate(-37.6281 58.4999 359.5)" fill="#361000"/>
<circle cx="-2.64251" cy="234.354" r="7.5" transform="rotate(-5.00114 -2.64251 234.354)" fill="#361000" stroke="#B17C53" stroke-width="4"/>
<circle cx="9.22464" cy="232.311" r="4.5" transform="rotate(-5.00114 9.22464 232.311)" fill="#361000" stroke="#B17C53" stroke-width="4"/>
<circle cx="15.5877" cy="224.728" r="3.5" transform="rotate(-5.00114 15.5877 224.728)" fill="#361000" stroke="#B17C53" stroke-width="4"/>
<circle cx="25.6368" cy="224.852" r="3.5" transform="rotate(-5.00114 25.6368 224.852)" fill="#361000" stroke="#B17C53" stroke-width="4"/>
<circle cx="37.1367" cy="224.348" r="6" transform="rotate(-5.00114 37.1367 224.348)" fill="#361000" stroke="#B17C53" stroke-width="4"/>
<circle cx="48.1134" cy="217.866" r="5.5" transform="rotate(-5.00114 48.1134 217.866)" fill="#361000" stroke="#B17C53" stroke-width="4"/>
<circle cx="58.424" cy="220.979" r="3.5" transform="rotate(-5.00114 58.424 220.979)" fill="#361000" stroke="#B17C53" stroke-width="4"/>
<circle cx="71.5489" cy="221.838" r="7.5" transform="rotate(-5.00114 71.5489 221.838)" fill="#361000" stroke="#B17C53" stroke-width="4"/>
<circle cx="86.5789" cy="221.527" r="5.5" transform="rotate(-5.00114 86.5789 221.527)" fill="#361000" stroke="#B17C53" stroke-width="4"/>
<circle cx="96.8024" cy="223.644" r="3.5" transform="rotate(-5.00114 96.8024 223.644)" fill="#361000" stroke="#B17C53" stroke-width="4"/>
<circle cx="105.855" cy="223.855" r="3.5" transform="rotate(-5.00114 105.855 223.855)" fill="#361000" stroke="#B17C53" stroke-width="4"/>
<circle cx="45.9966" cy="228.09" r="3.5" transform="rotate(-5.00114 45.9966 228.09)" fill="#361000" stroke="#B17C53" stroke-width="4"/>
<circle cx="19.1866" cy="231.44" r="3.5" transform="rotate(-5.00114 19.1866 231.44)" fill="#361000" stroke="#B17C53" stroke-width="4"/>
<circle cx="80.303" cy="230.107" r="3.5" transform="rotate(-5.00114 80.303 230.107)" fill="#361000" stroke="#B17C53" stroke-width="4"/>
<circle cx="110.712" cy="233.469" r="5.5" transform="rotate(-5.00114 110.712 233.469)" fill="#361000" stroke="#B17C53" stroke-width="4"/>
<circle cx="121.844" cy="234.502" r="4.5" transform="rotate(-5.00114 121.844 234.502)" fill="#361000" stroke="#B17C53" stroke-width="4"/>
<circle cx="130.424" cy="240.778" r="4.5" transform="rotate(-5.00114 130.424 240.778)" fill="#361000" stroke="#B17C53" stroke-width="4"/>
<circle cx="115.481" cy="242.086" r="3.5" transform="rotate(-5.00114 115.481 242.086)" fill="#361000" stroke="#B17C53" stroke-width="4"/>
<circle cx="122" cy="242.017" r="2.5" transform="rotate(-5.00114 122 242.017)" fill="#361000" stroke="#B17C53" stroke-width="3"/>
<circle cx="137.204" cy="243.698" r="2.5" transform="rotate(-5.00114 137.204 243.698)" fill="#361000" stroke="#B17C53" stroke-width="3"/>
<circle cx="171.549" cy="278.137" r="7.5" transform="rotate(75.2943 171.549 278.137)" fill="#361000" stroke="#B17C53" stroke-width="4"/>
<circle cx="175.562" cy="289.49" r="4.5" transform="rotate(75.2943 175.562 289.49)" fill="#361000" stroke="#B17C53" stroke-width="4"/>
<circle cx="184.11" cy="294.484" r="3.5" transform="rotate(75.2943 184.11 294.484)" fill="#361000" stroke="#B17C53" stroke-width="4"/>
<circle cx="185.681" cy="304.41" r="3.5" transform="rotate(75.2943 185.681 304.41)" fill="#361000" stroke="#B17C53" stroke-width="4"/>
<circle cx="188.117" cy="315.66" r="6" transform="rotate(75.2943 188.117 315.66)" fill="#361000" stroke="#B17C53" stroke-width="4"/>
<circle cx="196.356" cy="325.388" r="5.5" transform="rotate(75.2943 196.356 325.388)" fill="#361000" stroke="#B17C53" stroke-width="4"/>
<circle cx="195.026" cy="336.075" r="3.5" transform="rotate(75.2943 195.026 336.075)" fill="#361000" stroke="#B17C53" stroke-width="4"/>
<circle cx="196.391" cy="349.157" r="7.5" transform="rotate(75.2943 196.391 349.157)" fill="#361000" stroke="#B17C53" stroke-width="4"/>
<circle cx="153.569" cy="454.038" r="7.5" transform="rotate(75.2943 153.569 454.038)" fill="#361000" stroke="#B17C53" stroke-width="4"/>
<circle cx="199.232" cy="363.92" r="5.5" transform="rotate(75.2943 199.232 363.92)" fill="#361000" stroke="#B17C53" stroke-width="4"/>
<circle cx="170.294" cy="442.227" r="5.5" transform="rotate(75.2943 170.294 442.227)" fill="#361000" stroke="#B17C53" stroke-width="4"/>
<circle cx="185.922" cy="325.024" r="3.5" transform="rotate(75.2943 185.922 325.024)" fill="#361000" stroke="#B17C53" stroke-width="4"/>
<circle cx="178.101" cy="299.163" r="3.5" transform="rotate(75.2943 178.101 299.163)" fill="#361000" stroke="#B17C53" stroke-width="4"/>
<circle cx="189.717" cy="359.18" r="3.5" transform="rotate(75.2943 189.717 359.18)" fill="#361000" stroke="#B17C53" stroke-width="4"/>
<circle cx="189.638" cy="331.077" r="2.5" transform="rotate(75.2943 189.638 331.077)" fill="#361000" stroke="#B17C53" stroke-width="3"/>
<circle cx="198.368" cy="373.477" r="2.5" transform="rotate(75.2943 198.368 373.477)" fill="#361000" stroke="#B17C53" stroke-width="3"/>
<circle cx="163.888" cy="449.774" r="2.5" transform="rotate(75.2943 163.888 449.774)" fill="#361000" stroke="#B17C53" stroke-width="3"/>
<circle cx="160.376" cy="444.058" r="2.5" transform="rotate(75.2943 160.376 444.058)" fill="#361000" stroke="#B17C53" stroke-width="3"/>
<path d="M152.179 259.954C144.315 256.125 148.057 247.265 137.553 247.683L143.007 241.183L170.982 268.347L162.172 276.647C163.143 270.539 160.183 263.852 152.179 259.954Z" fill="#B17C53"/>
<path d="M187.825 414.937C198.584 365.813 181.954 370.781 184.351 358.024L187.731 362.245L193.254 362.264L193.603 366.248L197.936 369.884L195.751 373.589L197.463 375.949L203.683 383.937C196.322 401.144 184.139 431.771 187.825 414.937Z" fill="#B17C53"/>
<path d="M183.952 422.303C178.239 430.432 169.296 432.62 165.616 436.455C169.443 438.128 177.652 440.923 178.05 440.888C178.449 440.854 183.309 434.071 185.69 430.684C187.491 424.503 189.666 414.174 183.952 422.303Z" fill="#B17C53"/>
</g>
<defs>
<filter id="filter0_f_52_17" x="-34.1275" y="396.703" width="351.875" height="184.434" filterUnits="userSpaceOnUse" color-interpolation-filters="sRGB">
<feFlood flood-opacity="0" result="BackgroundImageFix"/>
<feBlend mode="normal" in="SourceGraphic" in2="BackgroundImageFix" result="shape"/>
<feGaussianBlur stdDeviation="7" result="effect1_foregroundBlur_52_17"/>
</filter>
<filter id="filter1_d_52_17" x="-154.126" y="146.874" width="484.5" height="425.251" filterUnits="userSpaceOnUse" color-interpolation-filters="sRGB">
<feFlood flood-opacity="0" result="BackgroundImageFix"/>
<feColorMatrix in="SourceAlpha" type="matrix" values="0 0 0 0 0 0 0 0 0 0 0 0 0 0 0 0 0 0 127 0" result="hardAlpha"/>
<feOffset/>
<feGaussianBlur stdDeviation="12"/>
<feComposite in2="hardAlpha" operator="out"/>
<feColorMatrix type="matrix" values="0 0 0 0 0.188235 0 0 0 0 0.054902 0 0 0 0 0 0 0 0 0.3 0"/>
<feBlend mode="normal" in2="BackgroundImageFix" result="effect1_dropShadow_52_17"/>
<feBlend mode="normal" in="SourceGraphic" in2="effect1_dropShadow_52_17" result="shape"/>
</filter>
</defs>
</svg>
